/* XPM */
static char *d04e2bfbe6284fb6f088f0f26e75555a4e8eAuv4p8021ayO[] = {
/* columns rows colors chars-per-pixel */
"50 50 246 2 ",
"   c #3C1C1D",
".  c #3B380D",
"X  c #441D1D",
"o  c #4B1E1E",
"O  c #4D141A",
"+  c #53161B",
"@  c #521F1F",
"#  c #5C191C",
"$  c #58171B",
"%  c #631C1D",
"&  c #6B1E1E",
"*  c #651E17",
"=  c #791704",
"-  c #513B0D",
";  c #4D211D",
":  c #442A16",
">  c #53221E",
",  c #5B241F",
"<  c #572919",
"1  c #4B3612",
"2  c #593814",
"3  c #4A3C0E",
"4  c #64261F",
"5  c #6C241E",
"6  c #65291E",
"7  c #6B2B1E",
"8  c #692A17",
"9  c #74241E",
"0  c #732B1B",
"q  c #792919",
"w  c #6A311C",
"e  c #7A331C",
"r  c #461F20",
"t  c #5B2221",
"y  c #532221",
"u  c #642521",
"i  c #6B2521",
"p  c #6D2920",
"a  c #672820",
"s  c #742622",
"d  c #7B2621",
"f  c #742A21",
"g  c #7C2C22",
"h  c #7B3521",
"j  c #3B4D12",
"k  c #474916",
"l  c #505013",
"z  c #6B4A0D",
"x  c #4D6214",
"c  c #696916",
"v  c #545E29",
"b  c #57672C",
"n  c #4A732F",
"m  c #4A7134",
"M  c #4E7738",
"N  c #537739",
"B  c #57712F",
"V  c #666E2F",
"C  c #597A46",
"Z  c #677E46",
"A  c #871B06",
"S  c #832A1E",
"D  c #892D1B",
"F  c #89351A",
"G  c #983617",
"H  c #992810",
"J  c #A73A0E",
"K  c #A43A13",
"L  c #AA3A18",
"P  c #B43D15",
"I  c #B33A1B",
"U  c #BC3B19",
"Y  c #AA2E0E",
"T  c #832C23",
"R  c #8C2C23",
"E  c #852722",
"W  c #942D22",
"Q  c #9B2E23",
"!  c #843322",
"~  c #8C3223",
"^  c #8B3B21",
"/  c #943324",
"(  c #9B3424",
")  c #9C3B23",
"_  c #943C23",
"`  c #A33424",
"'  c #A43C23",
"]  c #AB3724",
"[  c #B43723",
"{  c #A92F24",
"}  c #C83B0A",
"|  c #C63E1B",
" . c #D83B04",
".. c #C73D21",
"X. c #96481D",
"o. c #8C4A12",
"O. c #B8430C",
"+. c #A74317",
"@. c #B44212",
"#. c #BB4212",
"$. c #B84718",
"%. c #A7541B",
"&. c #B1520E",
"*. c #99670A",
"=. c #B1670C",
"-. c #9C4122",
";. c #AA4722",
":. c #B84723",
">. c #B55524",
",. c #C3450D",
"<. c #CA490B",
"1. c #DD4D0B",
"2. c #D44909",
"3. c #D7550C",
"4. c #C84515",
"5. c #D94815",
"6. c #C65916",
"7. c #D75917",
"8. c #C8590A",
"9. c #E74C06",
"0. c #E5520A",
"q. c #E95607",
"w. c #F55A04",
"e. c #FC5B02",
"r. c #F35506",
"t. c #E85013",
"y. c #D36818",
"u. c #D16C10",
"i. c #E76709",
"p. c #F86B04",
"a. c #E87A08",
"s. c #F97804",
"d. c #E77512",
"f. c #C94D22",
"g. c #D15621",
"h. c #D86B25",
"j. c #E26D20",
"k. c #63841C",
"l. c #568E33",
"z. c #568937",
"x. c #5C9533",
"c. c #5E9A34",
"v. c #589132",
"b. c #568130",
"n. c #678A2B",
"m. c #769626",
"M. c #7A9B25",
"N. c #75932B",
"B. c #759926",
"V. c #629E35",
"C. c #659A3B",
"Z. c #7B953B",
"A. c #779534",
"S. c #6B8D35",
"D. c #77A92C",
"F. c #7DB32E",
"G. c #65A137",
"H. c #69A538",
"J. c #6DA734",
"K. c #73AC34",
"L. c #75A937",
"P. c #7BB435",
"I. c #6AA22F",
"U. c #5D8A46",
"Y. c #688547",
"T. c #659747",
"R. c #7C9645",
"E. c #678558",
"W. c #779959",
"Q. c #719053",
"!. c #77A750",
"~. c #789563",
"^. c #769068",
"/. c #82A627",
"(. c #8AB82B",
"). c #92BD2B",
"_. c #8BB935",
"`. c #F88704",
"'. c #FA9704",
"]. c #EA870F",
"[. c #FDA702",
"{. c #FEB703",
"}. c #DA850E",
"|. c #95C325",
" X c #9DCB24",
".X c #99C627",
"XX c #98CA33",
"oX c #A3D226",
"OX c #A9D927",
"+X c #ACDC29",
"@X c #A4D52A",
"#X c #A7D339",
"$X c #AFE02B",
"%X c #B3E42B",
"&X c #BBEC2D",
"*X c #B7E82C",
"=X c #BEF02F",
"-X c #ADE232",
";X c #B7EB32",
":X c #FECB03",
">X c #C0F22F",
",X c #C3F531",
"<X c #C9FC33",
"1X c #C7F933",
"2X c #81994A",
"3X c #869C56",
"4X c #8AA25E",
"5X c #94B652",
"6X c #849D7A",
"7X c #829667",
"8X c #93A669",
"9X c #94A76A",
"0X c #89A678",
"qX c #98AA78",
"wX c #8FB370",
"eX c #A2B47B",
"rX c #B4D857",
"tX c #AACF4E",
"yX c #ABC378",
"uX c #B8D478",
"iX c #A7C665",
"pX c #9EC940",
"aX c #8DA283",
"sX c #95A88C",
"dX c #95A989",
"fX c #9EB786",
"gX c #9FB790",
"hX c #A3B383",
"jX c #A6BB96",
"kX c #B1BE94",
"lX c #AEBFA3",
"zX c #A9C497",
"xX c #B7C698",
"cX c #B6CD89",
"vX c #B5C9AA",
"bX c #C4DB95",
"nX c #C3D98E",
"mX c #C9DAA8",
"MX c #D6E4B9",
"NX c #D9EBAB",
"BX c #C9D8C3",
"VX c #DCE8C3",
"CX c #E6EFD3",
"ZX c #FFFFFE",
"AX c #FAFCF6",
"SX c #EFF5E7",
/* pixels */
"p p p p u @ 9 i u ; e $.~ g s s f s g g f s s 9 U <.G ;._ ~ T T W ( / T ,.G g t 9 } 9.F , a u 6 a 6 ",
"f f f f , @ D @ > ~ u.i.;.~ s 5 i i u i d K U | w.`.].j.;.~ s s E W W ,.e.G s S U A A H u p p p p f ",
"h g g u o 5 P S +.a.{.`.i.| { Q W W W { 1.0.G J 8.s.'.{.d.[ Q Q Q I  .A  .4.Q 5.} A = ,., f 0 g g g ",
"! s @ o 5 { 9.q.'.{.}.;./ W P 5.5.5.5.r.J > ; o ; 6 o.&.a.p.5.5.9.9.H Y  .e.r.r.9. . .r.7 e g g T S ",
"@ o @ q Q } H <.[.].>./ E s s s D L r.O.u t @ @ ; > , 6 > < F q.e.r.9.9.Y q * * * * q H K % g g f a ",
"y & S Y 9.} ,.8.`.;.^ s i s i i i 9 G O.i u , @ > ; ; y X X X X F 2.= O O O O + + $ + + D 8 t t > ; ",
"T W U 9.K i F X.6.R s & i i u u 4 i i 2.i i < 3 j . . : ; ; o o o q O O O O + + $ + $ $ % K 6 u 6 6 ",
"I 2.Y U u i g h I s s i i u u u i i u P < b 0XxXmXMXvX0Xb : @ o o * + + + + $ $ $ % % * 5 J F G G ' ",
"0.,.Y q p g T E P i i u u u a u a p p l ~.zXhXcXcXfXvXBXBX0Xj y , # $ $ $ # % # % % & & d G y.4.f.5.",
"w t > > f R T R P i i u u i p p p w k ~.fXxXcXiXeX~.~.aXzXBXvXj , 4 # % % % % & % & & 9 T G i.].].s.",
"h a , t ! / / 4.+.f p i p p p p p k 4XeXVXCXCXMXiX!.W.~.~.~.vXvXk 9 % % & & & & & & 9 d D ' u.{.[.%.",
"! 0 u t g ( ;.y.$.^ f p p p f f 1 R.yXMXSXAXAXMXcX_.T.T.!.Q.0XvXeX- % & 5 & d 9 d d d T G ;.>.{.}.%.",
"^ f p i g ' h.[.6.-.! p f f p : B 5XmXVXZXZXZXMXnX).(.C.T.T.!.tXmXW.< 9 9 d d d E S E R / ' :.`.%.%.",
"^ h s s ~ >.'.:X[.-.0 , ; > ; j 5XuXnXSXAXAXSXzXuX|.|.).H.P.(.XXiXvXb 5 S S E R R R D W ( ' ' 3._ ;.",
"~ g g T ' ].{.:X{.d.@.0 , 4 - C wXuXuXbXSXCXzXwXC.|. X X.X|.|.(.T.zXjX- W R R W W Q Q Q ( ` ( 7.! ) ",
"/ T T / w.7.y.h.h.7.s.p.w.8.x T.iXCXSXwXwXwXwXV.v.|.oXoX X X|.J.z.Q.zXZ 0 W Q Q Q Q Q Q ( ` ( 4.F ( ",
"Q E S 4.2.h ;.:.:.6.`.e.r.z z.4XiXSXNXrXwX!.c.v.P.OXOXOXoXoX X|.n.x.wXjXl R ` ` ` ` ` ` ` ( ( U G ( ",
"R W | e.0 a e ^ L `.i./ g x T.tXtXrXrXrXtXG.c.|.$X%X$X$X$XOXoXoX).c.T.zXY.f W ] { ] ] ] ] ] Q [ #.E ",
"4.5.p.e.@.8 w ^ i.`.' R 2 I._.tXtXtXrX-X$X+X@X*X*X*X*X@XK.P.OXOXoX).D.uXcXz R E E R W Q Q Q R I 0.I ",
"e > 0 O.q.i.&.a.`.6.' ~ l ).XXpX#X!.!.oX%X%X;X=X=X&X-XJ.V.c.|.OXoX X|.XXbXV :.Q R R E R W Q Q $.e.0.",
"        ; o.d.[.'.>.;.e k.|.XX#X!.H.c.G.OX&X=X=X=X;XH.H.V.G.V.|.OXoX X.XuXW.&...{ { ` ] ] :...w.@.  ",
";       t w o.u.[.y.;.k /.).XXW.T.c.c.V.J.-X=X1X=X-XH.H.H.V.V.J.+XoX X XrXzXz q.r.t.t.5.g.g.`.O.< X ",
"y X : o t w o.%.u.'.u.k ).|.H.T.c.c.V.V.G.K.,X1X<X<XXXH.H.H.J.-X$XOXoX.XXXbXb s E R [ 7.`.[.].e p , ",
"t , > o < p h X.X.=.i.k.).|.L.S.c.c.G.G.G.P.1X1X<X<X=XXXH.K.-X%X$XoXJ.v.D.uX3X< u i T ' y.[.=.~ p 6 ",
"p a u t t 6 h h ! e o.n.).|. XI.c.c.G.G.P.=X1X<X<X<X<X1X-X;X=X;X$XJ.v.v.v.wXeX1 6 p g ( :.'.X.! e p ",
"f p p p p a p w e f - N D..X X XJ.c.c.K.;X1X1X<X<X1X<X1X1X=X;X;XK.c.v.v.v.!.jXk u a g / ] s.~ ! g f ",
"! g f f f a p p 0 g k C L.|. XoX@XF.P.;X=X1X1X;XP.P.;X1X=X=X;XXXc.x.v.l.l.U.jXj 7 p g ~ ` 3.R ~ ! T ",
"~ ! T g g u > t 0 F k S.A.). XoXOX$X%X&X=X=X;XK.T.K.K.-X=X=X$XXXc.x.v.l.l.U.lXv ! g g d I ,.i q ~ ~ ",
"~ T T T T s t s G :.l 2XA.D.(.D..X+X%X*X&X-XK.H.H.H.H.J.-X&X*X$XF.x.v.l.N N kXb e 6 9 ( 5.5.S 5 i g ",
"i s g T f i D P 7.`.x 2XZ.n.b.l.c. X$X%X*XP.G.G.H.G.H.G.P.;X*X$XOXD.v.b.N A.kXV ' ` [ 5.w.e.| Q E i ",
"( E q d W P r.e.i.7.x 2XZ.N m b.l.c.oX$X%XF.G.G.G.G.G.G.F.%X$XOXoX Xn.B S.Z.xXb 7.t.r.1.U I 1.r.5.I ",
"@.K U 5.0.e.q.P ( ] z R.Y.C m n n l.F.OX%X-XK.V.V.V.V.J.$X%XOXoXoX/.M.N.A.2XxXc `.3.W d g d W 4.e.e.",
"t t u T q.,.i u f R o.Q.R.C C m n n (.oXOX+XOXD.c.c.J.OX+XOXoX/.B.B.m.N.Z.3XhX*.$.~ f f f s d 1.+., ",
"f f s s 0.q , , , p F n.4XR.C N m N.m.M.(.|.oXoXD.K.oXoX.X/.n.n n N.N.Z.2XqX7Xi.;.! f g p u q ,.u i ",
"~ E d R 1.p t y y u D z 9X3XR.Z N.N.m.m.M.M.M./././.D./.M.n.n m m N S.2X3XkXc p.' ! f p u y G G T ~ ",
"g d W 4.<.p a a 6 f D &.Y.9X3XR.Z.A.N.b.V M.M.M.m.M.M.m.n.m m m M C Y.3X9X6X*.p.' T u r   y @.K R W ",
"R { | e.U S f f q g G q.l dX9X3XR.R.Y.C M N N.N.m.m.m.m.N.B N C C Z Q.8XkXV `.s.7.~ u y u ^ 5.@.E d ",
"f.t.w.e.#./ ~ ~ ~ 7 9.8 : B hX9X4XW.C C N N N N.N.N.N.m.A.S.C C E.^.8XhXQ.8.s.1.0.:.( ( ] 4.r.1.{ [ ",
"t.G d P 0.R T ! g @.O.o o : Z hXqX^.^.E.E.C C Z Z.2XA.2X2X2X2X~.6XqXhX7Xz +.+.+.+.q.0.q.4.` ( 0.w.r.",
"i t t 4 0.q.4.f.g.s.0 @ > 4 1 Y.sXaXaX^.^.^.E.E.2X2X2X3X3X3X8XqXhXhXQ.- 4 5 8 0 0 1.,.W E T g W w.#.",
"t y ; > 5 6.d.'.'.d.a t 4 a p 2 B aXsXsXaXaX6X8X8X8X9X6X6XaXfXhXhXC z p i i f s G #.W T g f s T 4.s ",
"y ; ; t 6 ! g.{.{.&.e 6 p p p f w k E.sXsXsXdXhXeXeXhXsXsXsXsXQ.c *.! g g g T d P ' / / R g s G W i ",
"t y t 4 f / :.d.'.^ g f f g g g g g w l C 7XqXeXhXhXdX6X^.Z c =.'.%.) ) / ( / E U / / R D T f @.T s ",
"u a u 0 ! / :.5.a.0 g g g ! T ~ ~ T ~ ~ s : 1 k k k k l 2 e _ ) &.@.) ` ' R W | 1.g / / ~ T 7 4.W s ",
"p f p p i E Q [ 3.p g ! ~ ~ ~ / / / / T i i W I W E G 4 p g / ( T 4.` Q ` | 5.w.i., s G ~ p G ,.Q E ",
"g f s g W { [ ..,.p T ~ ~ / ( / / / g i g R [ ..5.4.S ; p ~ / T T 3.i.0.1.K 0 F p.0 X @ , J #.4.` R ",
"U U [ | | 5.t.t.<.p / / / ( ( ( T u i ! ( $.f.t.p.,.; , i / g g ` i.s.P i i i q s.8.>   q L ~ / 0.| ",
"+.K K G K P 2.p.`.f / ( ) / T u u i g ' g.j.d.p.r.J > 4 f T s L ,.2.@.u i s g D s.'.i.<.w.i T G q.,.",
"o X o @ @ t % $.'.%./ / T p u % i d ` f.].{.].;.+.@.u u i s ) 9.A Y P 0 g T T R 3.6.E T O.P G J X   ",
"r X o o @ t u q `.a.^ T g g g T W ` 4.p.[.{.h.;.G $.i g / I 1.9. . .2.9 T R R d 1.R s s L e.G     X "
};
