/* XPM */
static char *_38254e13637432fca6a3c27ceec7e3bBsP8Gw2Fx2p0Z4ph[] = {
/* columns rows colors chars-per-pixel */
"50 50 239 2 ",
"   c #3D1B1C",
".  c #32191C",
"X  c #4D141A",
"o  c #441D1D",
"O  c #4C1E1E",
"+  c #53161B",
"@  c #531E1E",
"#  c #5B191C",
"$  c #5A181A",
"%  c #631B1D",
"&  c #6B1E1D",
"*  c #6C1304",
"=  c #4E211D",
"-  c #44211D",
";  c #54211E",
":  c #5B231E",
">  c #5E291D",
",  c #5F371F",
"<  c #63251E",
"1  c #6B241D",
"2  c #64291F",
"3  c #6B2A1D",
"4  c #692716",
"5  c #73231E",
"6  c #742C1D",
"7  c #7B2C1C",
"8  c #78281B",
"9  c #68361E",
"0  c #73341E",
"q  c #79321E",
"w  c #7B3B1F",
"e  c #471F20",
"r  c #462020",
"t  c #562221",
"y  c #5C2320",
"u  c #652521",
"i  c #6B2521",
"p  c #662921",
"a  c #6D2921",
"s  c #722622",
"d  c #7B2521",
"f  c #742A21",
"g  c #7B2C22",
"h  c #6E3520",
"j  c #7C3121",
"k  c #7E3D21",
"l  c #753C20",
"z  c #7D4019",
"x  c #9B2606",
"c  c #832C1C",
"v  c #8C2D1E",
"b  c #842C18",
"n  c #952D1C",
"m  c #8C3315",
"M  c #83351E",
"N  c #8A321C",
"B  c #8B3D1F",
"V  c #8A3A17",
"C  c #953514",
"Z  c #9A3414",
"A  c #9A3B12",
"S  c #93331C",
"D  c #9B351D",
"F  c #983B1A",
"G  c #9D340E",
"H  c #A52607",
"J  c #AB3B0D",
"K  c #B9380A",
"L  c #A43B14",
"P  c #AA3B15",
"I  c #A3351C",
"U  c #AC331D",
"Y  c #A43B1A",
"T  c #AB3D1B",
"R  c #A73715",
"E  c #B33D15",
"W  c #BA3D15",
"Q  c #B43B1B",
"!  c #B9381D",
"~  c #B22F08",
"^  c #832622",
"/  c #832D22",
"(  c #8B2D23",
")  c #8B2723",
"_  c #942D23",
"`  c #9A2E23",
"'  c #843222",
"]  c #8B3223",
"[  c #843C22",
"{  c #8C3B22",
"}  c #933424",
"|  c #9C3424",
" . c #943A22",
".. c #9C3C22",
"X. c #A12F23",
"o. c #A43425",
"O. c #AB3523",
"+. c #A43B23",
"@. c #AA3A22",
"#. c #B43A24",
"$. c #B93823",
"%. c #C43205",
"&. c #C93B0B",
"*. c #D43E05",
"=. c #C53C1C",
"-. c #D33F20",
";. c #8A451D",
":. c #9C421D",
">. c #98491C",
",. c #9D551F",
"<. c #9D5A1C",
"1. c #A8430E",
"2. c #B4420E",
"3. c #BB440D",
"4. c #B9480C",
"5. c #B95A0F",
"6. c #A3431A",
"7. c #AC431A",
"8. c #A94618",
"9. c #B34213",
"0. c #BB4314",
"q. c #BC4A15",
"w. c #B4441A",
"e. c #BD451B",
"r. c #B24B1B",
"t. c #B94A19",
"y. c #AB581C",
"u. c #B55919",
"i. c #BA6817",
"p. c #8C4321",
"a. c #844122",
"s. c #944322",
"d. c #9A4423",
"f. c #984A21",
"g. c #A34323",
"h. c #AC4323",
"j. c #AA4B23",
"k. c #A44A24",
"l. c #B34326",
"z. c #B34D22",
"x. c #BC4C23",
"c. c #A75522",
"v. c #B85722",
"b. c #BC6422",
"n. c #C2460D",
"m. c #C9450D",
"M. c #CC490B",
"N. c #C54707",
"B. c #DC4D06",
"V. c #D44B0D",
"C. c #DC4D0C",
"Z. c #DA4307",
"A. c #CA580D",
"S. c #DC5209",
"D. c #D55A0B",
"F. c #D6570A",
"G. c #C44413",
"H. c #C14C12",
"J. c #CE4915",
"K. c #C24519",
"L. c #CA421C",
"P. c #C44B19",
"I. c #CB4412",
"U. c #D24B12",
"Y. c #DC4A13",
"T. c #D54617",
"R. c #CA5B13",
"E. c #CC531C",
"W. c #C75915",
"Q. c #D35414",
"!. c #D65B16",
"~. c #E44E0D",
"^. c #E64804",
"/. c #E45306",
"(. c #EC5405",
"). c #E45A06",
"_. c #E3530A",
"`. c #EA5208",
"'. c #E15B0B",
"]. c #ED5D09",
"[. c #F45404",
"{. c #FC5C02",
"}. c #F25908",
"|. c #E44916",
" X c #EE540D",
".X c #C8670D",
"XX c #D3650B",
"oX c #DC6B0B",
"OX c #D9660C",
"+X c #D7730A",
"@X c #CA6515",
"#X c #DB6312",
"$X c #D86919",
"%X c #C77915",
"&X c #D77716",
"*X c #EB6405",
"=X c #E7680B",
"-X c #F46304",
";X c #FC6401",
":X c #F36B04",
">X c #FC6B02",
",X c #F46F08",
"<X c #EA760A",
"1X c #F37404",
"2X c #FC7303",
"3X c #FD7C02",
"4X c #F77708",
"5X c #E36417",
"6X c #E47415",
"7X c #C64922",
"8X c #C95623",
"9X c #D24F22",
"0X c #CD6123",
"qX c #D46C20",
"wX c #E47022",
"eX c #DD8C0D",
"rX c #D8870D",
"tX c #EC8608",
"yX c #FC8402",
"uX c #F48C05",
"iX c #FC8C03",
"pX c #F18A09",
"aX c #F48506",
"sX c #EB950A",
"dX c #FD9202",
"fX c #F59A04",
"gX c #FC9C02",
"hX c #F59709",
"jX c #E98513",
"kX c #F19314",
"lX c #FDA502",
"zX c #FDAB02",
"xX c #F4A608",
"cX c #FEB403",
"vX c #FEBB02",
"bX c #F4A515",
"nX c #E58121",
"mX c #FFD902",
"MX c #FFC201",
/* pixels */
"a a 3 f u @ 5 a < = N q.] f s s f f g g d i s ^ C.7...d.} / / ] | | ( S V.f i % P Z.B.O u u < p 3 a.",
"j f f s : @ v O > :.<X<Xh.( d 1 i & u i c 0.T.Y.2XiXpX$X+.g i d ( ( I }.`.i 5 E x * ~ : i 3 a a f a.",
"g g g t O 1 W v t.uXcX<X'.L.o.` ` n ` ! `.3.b C A.yXlXlX!.O.` X.X.&.~ H ^.X.! ^.x x H m f f f g g p.",
"j i t O i U Z.).gXcX&Xj.} _ E I.C.T.|.`.m ; = O ; 0 >.5.+X].|.~.[.%.H %.[.{.(.^.*.*.^.M.2 g j g M s.",
"e O # c U &.H D.lX&Xk.] d s s s c W {.C y y t @ = ; > > O ; J (.{.^.^.K b + X X X X & J 1 7 g 6 p l ",
"t 1 ) ! [.m.H.XXtXg./ d i i i i i i G.R u u : ; = = = = o o - = N.G $ X X X X + X X + $ m < t : ; h ",
"( I &.[.m u M  .P./ s & i i u u i i 5 n.i i u y : ; @ ; O o o = 1 X X X X + + + + + $ % Z 6 1 3 6 s.",
"e.Z.H K u i g / @.s & i u u u p i i u 2.d a u u u < : : ; ; ; ; % X $ + $ $ $ $ $ % % & b q.S ..Y z.",
"A.J C : f g / ( R s i u u u i i i a p L F g g f f f s a p y y y < + $ $ # % % % % % & 5 / F.E.E.!.,X",
"a > ; @ g ] ( T S i i u p i i a a f 3 7.D.' / / / / g g g s s p 1 $ % % % % % & & & 5 c } 5.iXfXyXi.",
"j 3 : y / | | !.F f i i i 3 a a f 3 M R.dXr./ ] ] ] ] ' / / g g 8 $ % & & & & & 5 5 8 / | u.lXcX@Xc.",
"[ f u u g  .l.<X6.{ f a i 6 f f : < 0.fXzXtXD d ( | ..| } ] ' f v % & & s 5 d d d d / n | z.sXxXc.c.",
"] f a s g h.6XcX@Xd.j a f 6 2 o : 9.dX<Xr.R.=X+.] p.k.j.../ / ( G.b & d d d ^ ^ ^ v ) ` | h.#Xu.c.c.",
"{ j s g ] 8XxXmXsXd.3 ; o o X & K -Xq.} ] ' H.*X0Xb.v.d...| @.E.`.3.8 d v v ( ( ) ) _ | o.+.q.6.g.c.",
"} / g / q.iXxXbXkX4XF.J N b n &.[._.f g j w .XgXcXhXjX!.7XY._.N.N.).I c ) ) _ n _ _ _ | | +.T 6. .j.",
"} / ( o.}.t.x.0X8XQ.iX>X{.3X;XH *.S.f 7 w <.sXMXvXlXuX2X{.{.B.n.3.=XoXD v ` | ` o.o.` | o.o.I 3.} k.",
"] / _ (.9.j  .8.h.=X2XV.W G.3X*.^.S.3 0 ;.rXvXxX%X8.} / D S.;X:X<XMXlXr./ _ o.o.O.o.o.o.o.o._ J.( k.",
"_ U ~.{.4 < h M A.iXe._ / d 9.>X>X,X{ ;.u.uXjXy.{ g s s s f N 7.W.&XuX=X` ^ ` | o.O.O.O.O.` ) }.^  .",
"U.V.).{.F.V 0 5.aX#Xo.] g s g <XlXgX@XA.:XoXd./ i i i i i i f '  .h.r.;XJ.+.} ^ ^ ) ) _ _ _ ( {.Y.!.",
"- .   4 2.*X1XgXiXt. .} g i j +XvXfX3X2XF./ i i i u u u u u i a g ' ] H.>XE.$.X._ _ _ | | o.#.{.n.z ",
"        = 9 5.fXjXv.d.] g 2 3 .XdXD.:X=X7 s i u u u u y < u u i a f g k.iX3X}.Y.=.$.#.$.7X7X>X1.o 9 ",
"r     = ; 0 ;.i.fXjX:.' f 3 : 1X).>X>XT f i u u u u p p i a i f f f { %XlX#X9.W =.T.'.=X6XiX5.2 ; 9 ",
"t = r = ; 0 B ,.i.iXoXN 0 3 A -Xx ].-Xc s u u p u p a i i a a f f ' ,.xX<X{ s i s g o.!.zXhXB f p l ",
"p < t : > 3 0 B B :.;X4.9 5.uX*X3.;XD.M i i i i i a i a f f f f j ;.rXhXk.f p y u a ] l.pX+X{ j p z ",
"a a p u u p f j j j 6.-X<XlXpX#X=X2X@Xa.j a a a a a 6 i < ; @ : M .XzX@X} f p u p f ] @.=Xu.] j h [ ",
"j f f a p p a a f 6 7 q.:XK.+.g.j.tXsX,.[ g a a f f 6 o   @ & c F.gXlXw.] g f p p a / | D.F ] g g s.",
"' g g g f u y p f ' I K.K.] f j ;.%XvXrX>.k 3 1 3 < o o % 8 n V.*X*XdXT ] { ' 7 f j / ( _.g ( ] ] d.",
"} ] ' ' g i ; p c @.8X,Xw.' u p k <.eXvXtX;.2 O O @ % 8 Z m.[.^.x ~ yXQ.| ..g.B f u s ` _.s u d ] k.",
"f g / ' / i s S e.6XhXcXr.' u : 3 p.<.sXcXdXtX)./.(.^.^.^.[.{.[.(.(.;XiX5X0Xj.} ' _ O.-.[.! ( 5 u a.",
"g s s d d ( m.}.2XpXcXcXz.' 2 : < h f.&XjXb.6.6.V.[.*.H %.[.[.m.S | P.uXvXkXwX9X7XT.~.(.~.`.C.Q n s.",
"J.Q U U ! [.{.S.Q l.6XgXg.' 3 : o > d.#XW.f.w q | ].[.[.{.m.8 u p ' ..qXvXmXhXyX2X'.R ) / _ L.{.{.].",
"t t 7 m.{.(.N s g ..J.2X} / @ o ; g l.=XP.[ 0 ' 6.2X3X].D i y t t f { 8XnXbXcX1X+./ d f s d D {.9.;.",
"i i s i /.N < t 2 g w.;X| g 1 i c 7.V./.S.w.F 6.!.iX5XY ' a t = = < j g.8X$XdX!.} 7 f f 1 i V.7 u k ",
"( / d / _.3 : @ @ i Y {.#.o.| N q 6 > O > M 8.$XdXhX8Xh.] a ; = = t 3 { g.8X4XE.} g f f p u m.3 g s.",
"( s ^ $.V.i u y u a Y {.Y.T : o o O O t > j  .v.bXcXqXv.{ f p t : > ; p ] 9X>XU.} j < O o 6 M./ } k.",
"^ _ =.}.0.g a s f g R {.V - o o O O = : 2 7 s.u.sXvX&Xz. .j h u u O o t S 5XyX=X] a O o 2 +.C.d ^ s.",
"#.T.{.{.W ( ' ' ' 5 V.C o O O = ; ; ; : 2 q  .c.&XxXqXl.+.] f f u < 6.Q.=X3X:XV.e.} / ] +.U.}._ ` l.",
"}.J.S _.C.( / ' f L 4.O = = = ; t t u y i g M  .!.yX#X#.+.} ] / 3 7.2X:XOXD.D.F.'.Q.J.U.T.W ~.}.|.5X",
"g y y 8 }.U.@.#.x.-X4 r = : : u p u u i a f 8 ' D.>X>Xx.l...} f Y -X).4 : 2 6 g E {.I._ ^ / ( [.}.E.",
"y t @ t b F.2XpXiXXX> : u 2 i a a a a a f i i ] q.g.#XaX$Xv.j.z.=X+X6 2 2 5 f f M.o.( g g d s m./ [ ",
"t = = : y ' #XvXcX8.h i a a f f f f g g s u i n B p.c.zXvXxXsXkXhXf.[ f f g g v 0.} } ( g f i K.d k ",
"t ; t < f  .x.hXuXB f f f g g g / g ' g g u s / 2 j ,.eXlXfXlXlXrXf. .} } | ( n @.} } ] / g m I f [ ",
"u y u a j } l.#XXXq j f g / ' / / ( ] ' g u ^ ( i 3 j 5.B p.d.r.<X] o.o.o.( | T.S } } ] ( f K _ g a.",
"h a f a f / o.L.4.f g ' / ] ] } } ] } / i i _ X.^ / C < a ' } ( W Y | ` o.=.~.>Xc 1 ] } / 3 S._ / s.",
"g i i s ^ X.#.-.1.f / ] ] } } } | } g s g ( #.T.K.E 4 : g ] } g I :XU.~.V.L 7 S.:.o ; a q 3.V.U _ s.",
"$.#.$.! =.-.-. X9.s } ] | | | | d u s '  .=.9X X{.m @ t g } s ( e.yX*XN u i i q.*X3   . 2.g ( U.L.7X",
"P Z Z Z L 9.S.3XOXf } | o.| ' u u i / +.8XwX,X-X{.6 : i d ' 7 G.K >XN 1 s f d A.gXyXm.B.C 7 _ C.).A.",
"= o O O t # u D.dX:. .} / i u u u / @.9XkXzX&X..V.8 u i s g G.%.* (.c f g / / P =XR / S m.v L 6   9 ",
"e o O @ t t u F fX.X] j g g d d _ #.U.4XcXxXv.} H.S i d D e./.Z.%.[.R d ( ( ( Y E f s f }.M.o   o 9 ",
"r o e O @ t u f =X4Xq.+.g.+.I O.! ~.4.V .XtXr.] 4.K.Q U.4.4 - = m /.1X2.^ ^ ) Y.m i i c N.o       , "
};
