/* XPM */
static char *_0423e305dac4dfa81e5b84a4712dd9caSPoLQ1frsNiasbk[] = {
/* columns rows colors chars-per-pixel */
"50 50 242 2 ",
"   c #000000",
".  c #0B0504",
"X  c #0E0807",
"o  c #110704",
"O  c #130A06",
"+  c #1B0A04",
"@  c #130B0B",
"#  c #1D0D0B",
"$  c #191414",
"%  c #161005",
"&  c #230E0B",
"*  c #2B0F0A",
"=  c #260C06",
"-  c #2C110E",
";  c #28140A",
":  c #36160D",
">  c #2C1410",
",  c #201514",
"<  c #351611",
"1  c #3A1712",
"2  c #331914",
"3  c #3D1914",
"4  c #3D1B1C",
"5  c #331C1B",
"6  c #3D2C16",
"7  c #2D2120",
"8  c #451E0B",
"9  c #421B14",
"0  c #441D1D",
"q  c #4C1E1E",
"w  c #471B13",
"e  c #521F1F",
"r  c #591F1E",
"t  c #5C1C0A",
"y  c #651104",
"u  c #44211E",
"i  c #4D211D",
"p  c #54221E",
"a  c #5B231D",
"s  c #5C2517",
"d  c #552F16",
"f  c #613E03",
"g  c #7D3508",
"h  c #63251F",
"j  c #6D231C",
"k  c #6B2B1C",
"l  c #662919",
"z  c #72251D",
"x  c #742C1E",
"c  c #7C2B1C",
"v  c #742C14",
"b  c #66371B",
"n  c #78361C",
"m  c #471F20",
"M  c #4E2620",
"N  c #462523",
"B  c #542221",
"V  c #5B2221",
"C  c #552A21",
"Z  c #57322A",
"A  c #652421",
"S  c #6B2521",
"D  c #652823",
"F  c #6D2921",
"G  c #692D29",
"H  c #732622",
"J  c #7B2623",
"K  c #742A21",
"L  c #7C2B22",
"P  c #6D3423",
"I  c #7D3221",
"U  c #7E3E22",
"Y  c #733D23",
"T  c #79480F",
"R  c #5B5B5B",
"E  c #6B6B6B",
"W  c #832D1B",
"Q  c #8D2D1D",
"!  c #852C1A",
"~  c #962D1D",
"^  c #8C3316",
"/  c #83341E",
"(  c #8B3D1F",
")  c #883719",
"_  c #973515",
"`  c #9A3B12",
"'  c #92331C",
"]  c #993919",
"[  c #9B3308",
"{  c #A83E0C",
"}  c #A43B15",
"|  c #AB3C15",
" . c #A3351D",
".. c #AB3C1B",
"X. c #A73619",
"o. c #B33E15",
"O. c #BA3D15",
"+. c #B43A1B",
"@. c #B8371E",
"#. c #B12F09",
"$. c #832623",
"%. c #832C23",
"&. c #8B2D24",
"*. c #8B2723",
"=. c #942D24",
"-. c #9A2D23",
";. c #853222",
":. c #8C3323",
">. c #8D3A22",
",. c #853E23",
"<. c #933424",
"1. c #9C3424",
"2. c #943A23",
"3. c #9C3C22",
"4. c #A12E23",
"5. c #A33424",
"6. c #AB3322",
"7. c #A33B23",
"8. c #AA3B23",
"9. c #B53924",
"0. c #B93823",
"q. c #C7390A",
"w. c #C53C1C",
"e. c #D13F06",
"r. c #D33F20",
"t. c #8B471C",
"y. c #9D431C",
"u. c #9C491D",
"i. c #9D581D",
"p. c #974A0B",
"a. c #B9440D",
"s. c #B6460E",
"d. c #B95D0F",
"f. c #A44214",
"g. c #AA4419",
"h. c #B34213",
"j. c #BB4213",
"k. c #BB4A16",
"l. c #B24B1B",
"z. c #B9461A",
"x. c #A9581B",
"c. c #B35614",
"v. c #A64D0A",
"b. c #97610A",
"n. c #B86715",
"m. c #B2740D",
"M. c #8D4121",
"N. c #844122",
"B. c #934322",
"V. c #9A4423",
"C. c #A34423",
"Z. c #AC4423",
"A. c #A74B24",
"S. c #B24326",
"D. c #BA4E23",
"F. c #A85322",
"G. c #BA5523",
"H. c #C2460C",
"J. c #CB460C",
"K. c #CC490C",
"L. c #D44B0D",
"P. c #DD4D0D",
"I. c #D94707",
"U. c #CA560D",
"Y. c #DD5209",
"T. c #D65809",
"R. c #C54513",
"E. c #C14C11",
"W. c #CD4916",
"Q. c #C34518",
"!. c #CA421C",
"~. c #CA4615",
"^. c #D34B12",
"/. c #DD4911",
"(. c #D54617",
"). c #C95714",
"_. c #D35414",
"`. c #D65B15",
"'. c #E44B08",
"]. c #E45306",
"[. c #EE5406",
"{. c #E35B04",
"}. c #E5540B",
"|. c #EA5208",
" X c #E25B0B",
".X c #ED5F03",
"XX c #F35504",
"oX c #FC5C02",
"OX c #F35909",
"+X c #E44916",
"@X c #EE540D",
"#X c #C8670D",
"$X c #D4650A",
"%X c #DC670A",
"&X c #D97508",
"*X c #CA6515",
"=X c #DA6618",
"-X c #D57515",
";X c #C77D0F",
":X c #E8670A",
">X c #F56404",
",X c #F36B04",
"<X c #FC6B02",
"1X c #FA6302",
"2X c #ED7306",
"3X c #E9770C",
"4X c #F37304",
"5X c #FB7403",
"6X c #FD7C02",
"7X c #F77708",
"8X c #E4651B",
"9X c #E67516",
"0X c #C54A23",
"qX c #C95523",
"wX c #D24F22",
"eX c #CD6123",
"rX c #D06420",
"tX c #E47022",
"yX c #D08408",
"uX c #EB8707",
"iX c #FC8402",
"pX c #F48B05",
"aX c #FB8C03",
"sX c #F28708",
"dX c #E79505",
"fX c #FD9202",
"gX c #F59A04",
"hX c #FC9D02",
"jX c #F5960A",
"kX c #F19215",
"lX c #FEAB02",
"zX c #F8A506",
"xX c #FDB403",
"cX c #FEBC03",
"vX c #F4A515",
"bX c #E58121",
"nX c #FFD902",
"mX c #FFC201",
"MX c #898989",
"NX c #B6B6B6",
"BX c gray79",
"VX c white",
/* pixels */
"F F z F A e z F D i ) k.:.L K H K J J J L H H c P.o.] V.<.%.%.:.1.1.:.' L.L S a | I.'.e D s A D S N.",
"K K K K a e Q q s y.2X9XZ.&.H H S S A S ! O.~.+X5XaXpXx.O X X X X X X O O . X O o . o . X 2 F H K N.",
";.L L e e H O.Q k.pXxX3X X!.5.-.~ =.-.+.|.a.! ` U.iXlXyX                                  > K K x B.",
"I S B q j  .I.{.hXxX-XA.<.~ o.q././.+X|.^ e i q i 8 - ;                                   X - * ;.B.",
"m q r $.6.e.[ T.lX-XC.:.J H H H c j.XX_ A V e e i &       E BXBXR                               k Y ",
"e j *.#.[.q.E.$XuXC.&.H H S S S S H R.} S V V e p #       MXVXVXMX                              p b ",
"&. .q.[.^ A ;.2.R.$.H j S A A A S S z H.S S V r V #       E NXNXR                               K B.",
"w.I.#.O.A S L %.6.H S S A A A A A S D a.c F S S A &                                              .D.",
"U.f._ s F L %.=.} S S A A A A S S F l | ] L L L K *                                             _.2X",
"k a p e L :.&...' S S S S F F F F K k g.T.%.L ;.%.<                                             aXn.",
"I k h r ;.1.1._.] K S S F S k H K k c *XgXz.%.%.<.:                                             *XF.",
",.K A A L 2.S.3Xg.:.K k k F K H p h z.gXlXsX .L &.1                                             x.F.",
":.K F H %.Z.9XxX*XV.I F K z j 4 s h.fX3Xl.).:X7.( 3                                             F.F.",
">.L H L :.qXzXnXdXV.k p 0 0 w j O.oXk.' :.;.E.:X*X8                     # j j z z j z z c W ` n C.F.",
":.I L %.k.pXzXvXkX7XT.| ^ ! ~ O.XX].K L I n *XhXlXf                     - =.=.=.=.-.-.1.1.7.g.f.3.A.",
"<.&.&.5.OXk.D.eXqX`.aX<X1X6XoX#.I.P.F I Y i.gXmXcXf                     + e r s s a s F 5.5. .j.<.A.",
"=.$.~ XXh.K 3.C.C.:X5XL.O.R.6Xe.'.Y.k n N.yXcXzX-X3                                   7 5.5.=.^.&.C.",
"=.X.J.Y.k s n ;.U.aXQ.=.%.J h.<X1X,X,.t.d.jXuXF.,.;                 6 b i u u i M C C G 6.-.*.@X%.V.",
"^.W.+ . U.^ n c.iX%X1.&.L H %.2XlXhX*XU.,X%XB.X .                   Y ,XW.8.=.$.$.$.*.=.=.=.=.oX^.`.",
"u 5     p.>X7XhXsXD.3.:.L F n &XcXgX6X<XU.%.D                       Z E.4XqX9.5.-.=.=.<.1.5.+.oXa.) ",
"4 4     C k c.hXkXG.V.:.I A F #XfXT.,X[ O X X                       Z V.aX6XOX/.w.0.9.0.0X0X,Xf.u b ",
"N 0     C b t.m.gX3Xy.;.x D p 4X{.<X<Xl                             Z m.dX).} o.H.(.}.:X9XpXd.l p b ",
"V q     2 : n i.n.aX%X) n l ` :Xt g g -                             . % O X O h H $.5.=XlXgX( x l Y ",
"D D .       k ) ( y.1Xk.l d.fX{.o                                             e A k :.8.sX-X>.L G U ",
"F S         9 i l I } >XuX;Xb.` o                                   T b 3   . a D K &.7.:Xc.:.I K N.",
"I K .           1 K I z.,X8                                       . dXg.F     a D F ;.1.T.( :.%.L B.",
";.;..           2 z ' h.| :                                       . uX..I 2 2 x K L %.=.|.L &.&.:.V.",
":.:..                                                             . &X_.3.] C.( I S S -.}.K h J :.C.",
"L L .                                                             . :XiXtXrXA.<.%.=.6.(.oX+.*.H h N.",
"H j .                                                               f.pXxXkXtXwXQ.!.+XXXP.|.P.+.~ B.",
"(.+.* = +                                                         . >.rXcXnXjXiX5X}.X.%.%.=.~.oXoX:X",
"V p c H.{                                                           ;.G.tXxXxX2X..%.K L J J ~ oXO.t.",
"D S S H `                                                     # q a I C.qXrXfX=X<.c K x S F L.c V U ",
":.%.L $.Y.k u                                                 # i p k :.7.qX7X_.:.L K F h A J.F L V.",
"&.H $.0.L.S M .                                               # V a p D :.wX<X_.<.L h q 0 x K.%.<.C.",
"J =.w.OXj.L S B p #                                       - < 0 h i 0 a ' 8XiX X<.F i 0 h  .P.J %.2.",
"0.(.oXoXO.&.%.;.;.+                                       s K K D h } U.:X6X,XT.z.<.%.:.7._.OX-.-.S.",
"OXK.' |.P.*.;.:.L s 8 @                               O = k ;.;.k g.5X,X%XT.T.T.}._.W.^.^.O.'.XX+X8X",
"L V V x XXW...8.z.>Xk 5                               ) Z.3.1.K  .>X{.l V h K L h.oX~.=.%.%.*.OXOX).",
"D e e B / Y.5XsXjX$Xs 4 # .             $ $ $         v.=XG.A.D.2X&Xz D D K K K K.5.&.L J J H J.%.,.",
"B i p p a ;.=XcXxXg.F D k >           X G G G         m.cXzXdXjXzXV.;.K L L %.Q j.<.<.%.%.K k O.L U ",
"V p p D K 2.D.gXuX( I F K <           o J A S         b.zXjXhXlXyXV.2.<.<.<.&.~ 8.<.<.:.%.L ^  .H U ",
"D V h z L <.9.=X$Xn L L L <       X A F J A J z s O   g N.>.V.l.2X>.7.5.5.&.-.(.' <.<.&.;.L O.=.L N.",
"K F K F K %.5.!.s.x ;.%.;.<       O :.%.F S =.5.%.#   9 K ;.<.&.h. .1.-.5.w.P.<XW h <.<.W l P.-.&.B.",
"K F F z ! 4.0.r.| H %.;.<.1   @ N N I H J *.9.(.w.=   3 L &.1.L 5.,X^.'.L.} c Y.` q e k c a.L.6.<.V.",
"0.9.@.0.w.r.r.@Xh.K <.<.<.1   5 L A G :.2.0XwX@XoX+   3 L <.H &.Q.iX:X) A A F k.:Xk 4 5 h.c &.L.!.Q.",
"o._ _ _ } o.Y.6X%Xx <.1.1.3   , e V I 7.qXtX7X>XoX+   4 j L c R.#.1X^ F H J J U.fXaXH.Y._ L =.P.].U.",
"0 0 q q e a h T.pXu.2.<.;.>       X 7.wXkXlX-X7.L.+       9 R.q.y [.W J L %.%.| :X} %.' K.&.} v u Z ",
"N 0 q e e r D ' fX#X:.L L 9 & & & 1 W.7XxXzXG.>.k.: # # & v ].I.q.XXX.%.&.&.&.X.o.H K K [.K.i 4 4 b ",
"0 q m q e V D K %X6Xk.C.C.7.5.6.@.}.s.) #XpXl.:.j.Q.h.^.s.v 0 i ^ ].4Xa.$.J *.P.^ h H W H.0 4 3 4 b "
};
