/* XPM */
static char *_e2f7b418c464b5fa763af97f97d1892qLlr9J4BEYCYHURh[] = {
/* columns rows colors chars-per-pixel */
"50 50 242 2 ",
"   c #3C1C1D",
".  c #441D1D",
"X  c #4B1E1E",
"o  c #4D1419",
"O  c #53161B",
"+  c #521F1E",
"@  c #5A191C",
"#  c #641D18",
"$  c #791704",
"%  c #4D211D",
"&  c #46201D",
"*  c #54211E",
"=  c #5B231E",
"-  c #512217",
";  c #64251F",
":  c #6B251F",
">  c #65291E",
",  c #6C2A1E",
"<  c #732B1B",
"1  c #77291B",
"2  c #6D301E",
"3  c #7A331C",
"4  c #461F20",
"5  c #5C2221",
"6  c #572624",
"7  c #642521",
"8  c #6B2521",
"9  c #6D2920",
"0  c #682C26",
"q  c #742622",
"w  c #7B2722",
"e  c #742A21",
"r  c #7B2C22",
"t  c #793527",
"y  c #663C39",
"u  c #783B33",
"i  c #7F483B",
"p  c #7D504B",
"a  c #871B06",
"s  c #832B1E",
"d  c #882C1A",
"f  c #89351B",
"g  c #9C3A13",
"h  c #973619",
"j  c #992810",
"k  c #A7380E",
"l  c #A43A13",
"z  c #A93A18",
"x  c #B43D15",
"c  c #B33B1B",
"v  c #BC3B19",
"b  c #AF300D",
"n  c #832D23",
"m  c #8C2D24",
"M  c #882723",
"N  c #942D22",
"B  c #9B2E23",
"V  c #843322",
"C  c #8C3223",
"Z  c #8B3A27",
"A  c #933424",
"S  c #9C3424",
"D  c #9C3C23",
"F  c #953627",
"G  c #A43323",
"H  c #A53C24",
"J  c #AA3824",
"K  c #B43724",
"L  c #A92F24",
"P  c #C93A09",
"I  c #D83B04",
"U  c #C63E1B",
"Y  c #C53C22",
"T  c #96481D",
"R  c #8C431B",
"E  c #AD430E",
"W  c #B7430D",
"Q  c #A74416",
"!  c #B44212",
"~  c #BB4212",
"^  c #B6471B",
"/  c #A7551B",
"(  c #B75818",
")  c #BD580D",
"_  c #B96616",
"`  c #994222",
"'  c #894537",
"]  c #8D513A",
"[  c #A94622",
"{  c #B64722",
"}  c #B45928",
"|  c #A85032",
" . c #B46835",
".. c #BE7837",
"X. c #B46930",
"o. c #9E6437",
"O. c #C3450D",
"+. c #CC4B0C",
"@. c #C7470C",
"#. c #DD4C0B",
"$. c #D54A09",
"%. c #C65A0B",
"&. c #D8550B",
"*. c #C84616",
"=. c #D94815",
"-. c #C65919",
";. c #D55917",
":. c #E74D06",
">. c #E45306",
",. c #E5520A",
"<. c #EB5808",
"1. c #F55A04",
"2. c #FC5B02",
"3. c #F35506",
"4. c #E74D13",
"5. c #E55616",
"6. c #D9630C",
"7. c #CB6419",
"8. c #D66817",
"9. c #D47310",
"0. c #E96508",
"q. c #FD6B01",
"w. c #F56705",
"e. c #E87A08",
"r. c #FC7202",
"t. c #FC7C02",
"y. c #F57806",
"u. c #E76715",
"i. c #E87A16",
"p. c #C94C21",
"a. c #C85823",
"s. c #D25120",
"d. c #D1712C",
"f. c #EA7721",
"g. c #845954",
"h. c #955548",
"j. c #A95C4B",
"k. c #9A6757",
"l. c #B97847",
"z. c #AF785B",
"x. c #A6725A",
"c. c #B0785C",
"v. c #B57B58",
"b. c #AA694B",
"n. c #9A7670",
"m. c #AD7B6A",
"M. c #C57752",
"N. c #E8880B",
"B. c #FE8402",
"V. c #FD8C02",
"C. c #F48707",
"Z. c #FD9402",
"A. c #FA9905",
"S. c #ED8B17",
"D. c #FEAB02",
"F. c #FDA302",
"G. c #FFB402",
"H. c #FEBB02",
"J. c #C58638",
"K. c #CC983E",
"L. c #D49C3D",
"P. c #D28129",
"I. c #D6A43D",
"U. c #DE8924",
"Y. c #FEC805",
"T. c #FFD901",
"R. c #BC8659",
"E. c #BD834A",
"W. c #AA8369",
"Q. c #BB8B66",
"!. c #AB8778",
"~. c #BC9578",
"^. c #B88E78",
"/. c #C58A48",
"(. c #CA9646",
"). c #D29948",
"_. c #C89858",
"`. c #CF8C4E",
"'. c #D4A344",
"]. c #D7AB42",
"[. c #D6A74A",
"{. c #DCB345",
"}. c #DCB34A",
"|. c #CDA25B",
" X c #D6A854",
".X c #DEB354",
"XX c #DCB659",
"oX c #CEA54F",
"OX c #E2B947",
"+X c #E2BC56",
"@X c #C68C65",
"#X c #C59767",
"$X c #C59A72",
"%X c #C59879",
"&X c #CC977B",
"*X c #CBA36B",
"=X c #CEA365",
"-X c #D4A963",
";X c #DBB86A",
":X c #C9A876",
">X c #D5B87A",
",X c #D3AF79",
"<X c #E99459",
"1X c #EBCD4B",
"2X c #E6C548",
"3X c #EDD24B",
"4X c #F1D64C",
"5X c #F5DA4E",
"6X c #E9C958",
"7X c #EED453",
"8X c #EDD25D",
"9X c #F5DA53",
"0X c #F5DD5B",
"qX c #F1D557",
"wX c #DDC078",
"eX c #DFC16F",
"rX c #E2C264",
"tX c #E7C968",
"yX c #EED362",
"uX c #ECD26A",
"iX c #F5DD62",
"pX c #F2DA69",
"aX c #E3C876",
"sX c #F6E067",
"dX c #F7E376",
"fX c #9B8B8A",
"gX c #BC9987",
"hX c #A49490",
"jX c #AF928B",
"kX c #B5A190",
"lX c #BEAFA8",
"zX c #D4B987",
"xX c #C4A896",
"cX c #C8B598",
"vX c #D3BE9A",
"bX c #CAAC89",
"nX c #C6B5A7",
"mX c #C6BAB4",
"MX c #CFB5A5",
"NX c #D69B83",
"BX c #CFC6B0",
"VX c #C9C7C4",
/* pixels */
"9 9 9 q 7 + 1 8 ; % < ( f r q q q q w w q q q q v @.D ` D C n n N S F n x l r 5 < P :.f = 7 7 > : , ",
"e e e < = + d + 6 s 6.u.[ m q 8 8 8 7 8 w l v U <.V.e.9.[ C q w n N N *.2.g q s v a a j 7 8 0 , 9 e ",
"t r r ; o : c s [ e.H.C.u.U z B N N B G ,.>.g l &.C.Z.G.u.J N B B b P j I P B =.P a $ P ; < e 3 e 3 ",
"V q + X : L #.<.V.H.N.[ A N c $.=.=.=.3.l * % X & > R ) e.w.4.=.:.:.j b I 2.3.3.:.I I 3.< e r r V n ",
"+ . + q G P j ) D.N.} C w w q q d x 3.W ; @ * - hXBXxX$X$X$X#X$X@XxXNX$.k $ # # # # 1 j g ; r r e 7 ",
"+ : s b :.P W &.V.[ C q q 8 8 9 8 8 g x 8 7 = = hXmXcX#X$X$X$X$XQ.xXjXo o o o o O O O @ d < = = * X ",
"n B b 3.l 9 f R +.m q 8 8 8 7 8 8 8 8 $.8 7 7 n.,X>XaXuXuX+XXXeX;X|.^.fXO O O O O O @ @ # g > : , : ",
"c P b v ; 8 r n c q q 8 7 7 7 7 7 8 7 x w e g.R.rXpX0X9X6XJ.`.[.6X6X-X^.x.x.x.x.x.x.m.n.: k h f h S ",
"<.O.b 1 9 w r w x q 8 7 7 7 7 7 9 0 9 f z t !./.tXiX5X5X4XL.).OX4X0X8XeXwXrXaX;X-X=X:XzX!.jX0.^ p.;.",
"2 6 * * r n m m ! 9 8 7 8 7 9 9 , e e f &.Z hX|.8X0X5X5X5X4X2X4X5X5X9X0XsXiXiX9X+X.X+X>XVXVX0.i.C.y.",
"t > = = n A A ^ Q e 8 8 9 9 9 e 9 e 9 ^ Z.} lX;XqX9X5X5X5X5X5X5X5X5X5X5X5X5X5X5X5X1X6XaXmXnX8.G.F./ ",
"f e > 5 n D [ u.^ Z e 8 : 9 e q > = h e.G.C.~.tX0X5X5X5X5X5X5X5X5X5X5X5X5X5X9X5X5X0XqXtXxXbX_ G.N.[ ",
"Z < , 9 r H 8.F.7.` V 9 e e < * . < 6.A.9.8.%XtX5X4X4X5X5X5X5X5X4X5X9X5X9X9X9X9X9X0X0XyX_.@X^ C./ / ",
"Z r q e C { S.T.A.Q < * % * . + s #.w.z Z V ~.tX7X4X4X4X5X5X5X2X].].6X8XyXqXyXyXyXyX8X+X@XR.H ;.` ` ",
"Z r r n z N.H.Y.G.N.^ 1 = ; 1 b :.2.h r Z n._.yX9X1X1X3X5X5X3XI...X...d./.#X#X*X$X*X*X:XnXnXS ;.V D ",
"Z M m m w.&.a.f.a.;.t.q.1.<.>.b I 2.3 e ] jX(.8X4X2XOX2X5X5X5X3XJ.} } }  .v.Q.R.%Xm.| j.j.j.S *.V D ",
"F n M @.+.f Q } { -.B.1.>.<.t.P P w.1 3 ] BX(.8X7X3X{.I.3X5X5X5XOXI.L.L.'. X X X=X%Xm.G G S G v h S ",
"m N U 1.3 > e f z C.0.A m r +.w.:.q.T 3 o.vX(.8X7X3X2XI.{.4X3X2XOX{.{.OXOX{.{.].oX%Xm.J J G F K ~ n ",
"*.=.2.2.E > > f e.y.J m r w 3 0.V.A.-.Q d.vX(.yX5X4X3X}.K.{.{.J...R._.d.d.X. .o.j.j.B B G B M c ,.c ",
"f - < W 1.0.) N.V.;.H C r 9 t %.H.H.V.r.f.nX X7X9X5X0X7X}.(.K.J. .^.^.Q q.;.{ B M M M m N N B v 2.>.",
"        - R e.F.C.} [ Z r : 9 ( F.e.0.r.| %XyX9X5X5X9XiXsXdXdX6X=Xh.r Z 6.B.5.U K L G J K K { 2.E   ",
"      & - 2 R 9.D.8.` V 3 , = %.B.q.q.d.kX|.pX9X5X5X5X0XdXpXdXpX:Xk.t ` N.A.0.<.3.3.5.=.s.;.y.) = X ",
"6 . . % = 2 R / 9.A.9.s 3 , > 0.b #.q.j.zXrX0X5X4X4X5X5X0XiXpX7X_.~.!._ G.6.m e q M c ;.V.D.N.3 , = ",
"= 6 % % - 2 i R ` %.r.g , 3 %.w.k #.U.xX-XpX9X5X4X5X5X5X4X0X2X2X].|.#X-XzX` 9 7 7 8 n H 8.D.( Z 9 ; ",
"9 7 7 = = , 3 t f t %.>./ N.D.t.&.w.`.bXXX0X4X3X5X0X0X9X4X4X1XI.L.(.(.*XcXjXt 7 7 9 r D { Z.T V e 9 ",
"t 9 9 8 7 > 2 < e r < ,.B.e.-.{ a.U.-X;X8X5X4X4X9X0XsX0X7X2X4XK.#X@Xd._.=XmXi 7 7 7 r A H r.C C r r ",
"r r w e e 7 , 9 < e V c &.S C Z ` %XzXrXiX4X5X5X4X9X9X8X6X{.1X).vXxXQ./.=XmX' < 0 , r C G &.n C V n ",
"C V V r r 7 * 5 e V { 5.*.C < 9 i Q.>X6X5X4X5X5X4X5X3X7XyX XOXXXBXVXxX$X%XlX| C f r w w c O.q 1 Z C ",
"C n n n n q 5 q A ^ u.A.( f > = i R.rX6X1X5X4X5X5X5X4X1X1X6X[.rXzXM.w.r.-.{ [ D r 7 e B =.*.M : 8 r ",
"8 1 r n e 9 d x &.S.D.G.-.Z > = !.>XoXoX1X5X5X5X5X5X5X4X9XqX XOXXXvX&Xt.F.f.8.{ H z K =.2.2.*.B M : ",
"S M q w N x 3.2.1.6.N.D.( Z 0 !.>XXX'.{.5X5X4X3X4X5X5X4X5X9XyX}.+X;X$X@XD.Y.S.f.5.5.3.#.v c #.3.$.c ",
"! l v =.:.2.<.x A H s.V.{ Z kX,XtX}.].2X5X3X1X2X1X5X5X5X4X4X9X.XOX+XbXnXf.Y.Y.F.t.&.A w w w N *.2.2.",
"6 5 7 n 3.O.9 ; q n { w.| n.MXaX8X{.].2X4X3X1X2X3X5X5X4X1X1X4XXX2X+XzXmXa.f.D.A.^ C e e q 9 w #.Q = ",
"e e q q :.1 5 6 = e H f.NXxXwXpX7XI.I.{.4X5X3X3X3X5X5X4X3X3X5XXX+XXXzXlX[ p.u.B.H V r e 9 7 1 O.7 q ",
"C M w m ,.; 6 * * 7 ] <XBXeXuX6X}.(.J.(.3X4X5X4X3X4X5X5X4X4X0XXX+XoX:XhXC [ u.r.H V r 9 7 6 h g r m ",
"w w N U +.9 : ; ; e m.BX;X8X2X]./.E.x.d.].3X5X5X5X4X4X5X5X9XpX}.oX|.W.y 8 { 0.q.J V 7 4   + ! z N N ",
"m L *.2.v n e e r V b.;X6X]./.v.jXlXlXW...{.3X5X5X4X4X4X5X0XyX(.E.cXfX= V -.B.r.;.m ; 6 7 C +.^ w w ",
"p.3.3.2.v N C C C W.zXXX(.l.xXn.p 6 6 g.nXE.{.4X5X4X5X5X9XsX(.K.:XW.^ 0.w.t.B.&.>.^ S S J *.<.4.L K ",
"4.h q ! >.C n V !.,X X_.~.lXi y 6 7 5 0 g.nX(.3X3X3X3X5XqXXXK.K.W.o.w.r.E Q Q Q Q >.,.,.*.G B :.1.3.",
"8 5 5 ; #.<.*.&XbX_.#XW.g.p 6 * 7 0 8 9 u bXK.1X3X3X4X5X1XK.'.#Xb.7.6.< 5 7 , e e >.@.m M n w h 1.v ",
"5 X % * < -.,X%X*X:XW.p 0 > 9 9 9 9 e t g.Q.{.3X5X5X5X2XK...J.#X@X`.x.p 8 8 q q h ~ A n w e q n *.q ",
"6 X * 6 7 ' NXI.I.Q.h.0 , 9 e e r w r ' W.oX3X5X5X5X1XI.X.....@X$X:X~.m.n.r n w x G A m m r q h N 8 ",
"6 * = > e F { i.Z.f r e e 3 r r t n n h.bXL.7X7XqX7X6X'...(. X X.X X`.Q.mXF A n v F A A C V e ! m q ",
"7 ; 7 < n F { *.e.< r r n n n Z m m C h.gXE.XXrXrXrXrXrXrXrXrX+XrX).l.Q.xXF N *.#.r A A C d : *.m q ",
"e e 9 8 : M B K $.9 r n n C A A A A A n u xXc.c.c.c.c.c.z.z.z.z.c.c.gXmXG U =.1.0.@ e h C , g U B n ",
"r e q r N L K Y +.9 n C C A A A F m w e Z xXc.c.c.c.c.c.z.z.z.z.c.c.gXMX#.l < d q.< . + = l ~ O.G m ",
"v v v U U =.4.4.+.9 A A A F G F n 8 q n F { p.4.q.O.* = 9 A n w S 0.r.c : 8 9 e r.%.-   3 l d A :.*.",
"x l g h l x $.r.C.e F S S S n 7 7 0 r G a.f.y.w.<.k * 7 9 V q z P $.! 8 9 w q d B.A.0.+.3.: M S >.@.",
"4 . X + + 5 7 ~ Z./ C A V 9 ; 7 8 q H p.S.H.S.[ ^ E 7 8 7 q S :.a j x 1 w n m n &.+.n w ~ ~ h l .   ",
"4 . 4 + + + 7 r C.e.A r r r w n N L *.w.D.G.7.D h @.8 w F c #.>.I I &.1 n m m M #.n e e z 2.h     . "
};
