/* XPM */
static char *_7e42e2577094fa7c36beb67a3a1f1dbbmawYBd62PjCfHVn[] = {
/* columns rows colors chars-per-pixel */
"50 50 237 2 ",
"   c #3D1C1D",
".  c #361C1D",
"X  c #2D1A1B",
"o  c #4D141A",
"O  c #441D1D",
"+  c #4B1E1E",
"@  c #53161B",
"#  c #521F1E",
"$  c #5C191C",
"%  c #58171B",
"&  c #621C1D",
"*  c #651E17",
"=  c #791704",
"-  c #4E211D",
";  c #46201D",
":  c #53211E",
">  c #5B231F",
",  c #59271A",
"<  c #63251F",
"1  c #6B251E",
"2  c #65291E",
"3  c #6B2B1E",
"4  c #692A17",
"5  c #74251C",
"6  c #732B1A",
"7  c #782A19",
"8  c #6D301E",
"9  c #7B321A",
"0  c #441F20",
"q  c #531E21",
"w  c #5A1E22",
"e  c #671F22",
"r  c #4B2124",
"t  c #532222",
"y  c #5C2322",
"u  c #5C292A",
"i  c #593239",
"p  c #4C2930",
"a  c #642421",
"s  c #6B2521",
"d  c #6D2921",
"f  c #642529",
"g  c #682A2C",
"h  c #732622",
"j  c #7C2722",
"k  c #742A21",
"l  c #7C2C22",
"z  c #76272B",
"x  c #6A3527",
"c  c #7E3321",
"v  c #74332A",
"b  c #762D33",
"n  c #62333A",
"m  c #773239",
"M  c #692C32",
"N  c #7F441D",
"B  c #7D4321",
"V  c #5A3A44",
"C  c #793A46",
"Z  c #7D4A58",
"A  c #871B06",
"S  c #9C2507",
"D  c #832B1E",
"F  c #882C1A",
"G  c #8B331C",
"H  c #873719",
"J  c #9C3912",
"K  c #93331B",
"L  c #9C351C",
"P  c #983817",
"I  c #942E1E",
"U  c #A73A0E",
"Y  c #BD3407",
"T  c #A33A13",
"R  c #AB3D14",
"E  c #A7381A",
"W  c #B33D14",
"Q  c #B23B1B",
"!  c #BC3B1B",
"~  c #BB3D14",
"^  c #A62B0F",
"/  c #832C23",
"(  c #8B2D24",
")  c #86272B",
"_  c #932D22",
"`  c #9B2E22",
"'  c #972B2E",
"]  c #843322",
"[  c #8B3223",
"{  c #8A3626",
"}  c #933424",
"|  c #9B3424",
" . c #943C23",
".. c #9C3B23",
"X. c #97352D",
"o. c #852A31",
"O. c #8C2B33",
"+. c #942D34",
"@. c #9C2B34",
"#. c #893334",
"$. c #97383A",
"%. c #A43423",
"&. c #A43C24",
"*. c #AA3825",
"=. c #B43A25",
"-. c #AA2C36",
";. c #A62E39",
":. c #A72D37",
">. c #B72C39",
",. c #AC313D",
"<. c #A63A38",
"1. c #BC313E",
"2. c #B4313C",
"3. c #A7242E",
"4. c #C73908",
"5. c #D83B04",
"6. c #C63E1B",
"7. c #C73D21",
"8. c #C0313F",
"9. c #95461C",
"0. c #944D1C",
"q. c #AD430E",
"w. c #B8430C",
"e. c #A74318",
"r. c #B34313",
"t. c #BB4212",
"y. c #B6481A",
"u. c #A7551A",
"i. c #B75518",
"p. c #BB580D",
"a. c #98611E",
"s. c #BB6416",
"d. c #B27015",
"f. c #9B4422",
"g. c #9B5327",
"h. c #98463B",
"j. c #A34222",
"k. c #AB4324",
"l. c #A94926",
"z. c #BB4C24",
"x. c #B54725",
"c. c #AC5422",
"v. c #BC5823",
"b. c #B14738",
"n. c #A66120",
"m. c #C3450D",
"M. c #CD4A0C",
"N. c #C6480C",
"B. c #DD4D0B",
"V. c #D54909",
"C. c #C9580B",
"Z. c #DC550B",
"A. c #D8550B",
"S. c #C44214",
"D. c #CA4511",
"F. c #CA4818",
"G. c #DC4911",
"H. c #D64716",
"J. c #C75718",
"K. c #D55817",
"L. c #E74B05",
"P. c #E45206",
"I. c #E5520A",
"U. c #EB540A",
"Y. c #EA5A08",
"T. c #F65A04",
"R. c #FD5B02",
"E. c #F35506",
"W. c #E74D13",
"Q. c #E95212",
"!. c #D8640C",
"~. c #CC671B",
"^. c #D86517",
"/. c #D57619",
"(. c #D4750F",
"). c #E96609",
"_. c #F96704",
"`. c #E77909",
"'. c #FC7302",
"]. c #FD7D02",
"[. c #F57805",
"{. c #E76917",
"}. c #E57915",
"|. c #C94D22",
" X c #CA5824",
".X c #D15221",
"XX c #D66C25",
"oX c #E37820",
"OX c #873B49",
"+X c #973B4A",
"@X c #A73845",
"#X c #BE3241",
"$X c #BA3A48",
"%X c #C23544",
"&X c #C53B4C",
"*X c #C73B4A",
"=X c #C73E51",
"-X c #984457",
";X c #91434F",
":X c #A94759",
">X c #B74557",
",X c #B1404A",
"<X c #BB4D64",
"1X c #BA536A",
"2X c #B0576C",
"3X c #AF704B",
"4X c #CA4254",
"5X c #CB455A",
"6X c #CD495E",
"7X c #C34458",
"8X c #C65A50",
"9X c #CE4B62",
"0X c #C64D64",
"qX c #D14E65",
"wX c #C8536B",
"eX c #D3536C",
"rX c #CB5873",
"tX c #D45671",
"yX c #D65974",
"uX c #D85C78",
"iX c #D28B11",
"pX c #EB870D",
"aX c #FE8401",
"sX c #FC8C02",
"dX c #F48706",
"fX c #EC9909",
"gX c #FD9402",
"hX c #F89A06",
"jX c #E68813",
"kX c #F29619",
"lX c #FEAB02",
"zX c #FBA204",
"xX c #FCB304",
"cX c #FEBB02",
"vX c #FEC703",
"bX c #FFD901",
"nX c #D26481",
/* pixels */
"d d 5 d a q 5 d < + 9 y.G c h h j j j l k h h 5 ~ F.L j. .[ / / _ | | / S.P 5 w 5 6.L.H 2 a 2 < a 2 ",
"k k k k > # F # # H !.{.k.( h s s a a s j E ~ 6.Y.sX`./.x.] h h ) _ _ m.R.J h D 4.A A J a 2 d d h k ",
"c l l > # & W D e.`.cXdX).S.%.` ` _ _ %.B.P.J U A.dXgXxX{.=.` ` ` E 5.S 4.D.` G.4.A = 4.> k k 5 9 l ",
"] h t + 1 %.L.Y.sXvX}.l.} _ Q V.G.H.H.T.T > + + + , 9.p.(.[.G.G.L.L.S S 5.R.E.E.L.5.5.E.6 k l c c / ",
"t + @ 5 %.4.S N.zXfXc.} j j h h D W E.~ < > # # - : , 2 , , P B.T.L.L.L.^ 7 & & * * 5 S J a l l k a ",
"t & / W L.4.r.!.dXy.( h h s s d s e J w.s < y # : - : - + O O O P V.7 o o o o @ o % % % F 4 2 y : - ",
"/ I ~ U.T s ] 9.J.( h s e s a s s a s M.s s a > : : : + + + O + ; 7 o o o o @ @ % % % $ & J < 2 2 3 ",
"Q V.^ Y a s l / W h h s s a a a s s s W 5 h s a a y , % , - - # o 4 @ @ @ % % % % & % * 5 R K G L | ",
"I.m.U 7 d l / j W d s a a a a a d d d H R l k k k k d d a y y y # $ % % % $ $ & & & < 1 j G !.z.|.F.",
"3 , t @ k / / _ W s a s a d d d d d 6 G A./ l ] ] l l l k h d a < & & & & & w i u e t i V i g.}.dX[.",
"c 2 y > ] | | y.e.k d s d d d d d k 5 y.gXJ./ ( [ [ ( ] / / l k d 5 & & e s z i M e u n V V g.xXzXu.",
"] d a a l | k.).y.{ k s d d 6 h d : G `.cXdXe./ ( } } | } [ ] / d F y p OX@X+XV n C 2X2X2XrX2X3XjXu.",
"{ 8 d d l &.XXzX~.L c k d k h : ; 6 !.gX(.!.`.| l { f.l.j.} / j D H M C 2X1X1XOXOX-XrXnXnXnX2XZ u.c.",
"{ c h k G z.kXbXhX9.6 > : : O # D B.).e. .{ r.Y.|.c.c.g. .[ | &.t.8 ;XwXtXuXuX1X<X<XrXrX1X2X;XV P f.",
"{ / l / E pXcXvXxX[.r.6 > < 5 ^ U.R.P / ] c { pXhXfXjX X|.=.H.Z.S.;X:XtXyXyXuXyXyXrX:X+X<.b.$.y.{ f.",
"} / / _ Y.!.K.XXXXK.aX_.T.Y.P.Y 4.R.D k 9 N n.d.iXiX/.XX|..Xx.e.&.>X0XtXyXyXuXuXuXrX+X+._ | ..F.G | ",
"} / ( D.M.c e.l.x.J.aXR.I.).'.4.4.R.9 k N n.a.p n C ;X-X-X-XC C +X0X9XeXeXeXtXyXyXrX@Xo.j } | t.J | ",
"( _ 6.T.9 2 c 9.e.dX).} ( j N._.L.).x ;X:X8X8X:X:X>X>X>X0X<X1X1XwX9X6X7X5X9XeXeXyXtX<X+Xb f z W ~ / ",
"F.G.R.R.q.2 4 H ).].*.( j j 9 i.XXXX;X-X1XqX6XqX5X6X6X6X9X9XeXyXuXeX5X=X=X4X7X:X:X1X<X@X+XC m ! I.Q ",
"9 # 4 w.T.).p.`.gXJ.| [ l d v n C >XeXtXeX6X5X4X4X5X5X4X=X0X9XtXyXtX5X&X&X$X@XC C OX+X2X<X1X@Xy.R.P.",
"  . .   - 9.(.hXdXv.f.] y M $.@X>X0X9XeXeX6X4X4X=X=X=X=X=X=X9XqXeXtX6X$X@Xx.x.*.@.@.<.<.b.2.x.T.q.  ",
"O     O , 8 0.(.zXc.{ #.b +X@X=X5X6XqXeXeX9X4X*X=X9X=X=X=X&X=X9XeXtX>X$.b.~.C.I.E.E.I.H..X^.[.p.> O ",
": O O - , 8 9.g.d.x m @X$X=X*X=X7X5X9XqXqXqX5X%X=X5X=X=X&X#X=X0XeXqX+Xx fX(.[ k k ( Q K.sXzXpXc 2 > ",
"y , - : , 2 : b $.<.$X$X*X*X*X%X&X5X9XqXeXeX6X&X*X*X%X&X%X#X#X&X7X+Xh.iXjXP d a a s ] &.^.lXp.H 6 < ",
"d a < > y a M +.@X%X*X%X%X*X%X#X%X4X5X9XqXeX6X4X%X8.%X%X%X%X>.@X+X+Xb./.h.c d a a a l | x.gX9.G c d ",
"v k 3 2 f g ,.%X8.1.8.8.8.8.#X>.8.*X4X4X6X9XqX9X%X8.>.#X>.>.:.) b +X+X#.;X#.k a a d l } &.'.] [ l k ",
"c l f f o.;.1.2.2.-.;.,.;.;.,.#X1.8.4X4X5X5X9XqX=X%X3.3.o.f j e r g c.J.b { ] k 3 k l [ %.A.( ] ] / ",
"[ / z b @.1.+.' +.@.*.=.=.@.O.O.@.:.1.*X4X4X6X6X9X@X) j s e ^ Q 9 4 p.`...G f.G ] c h / Q m.1 / [ [ ",
"[ / +.+.,.-.y y  .x.^.gXJ.{ > r u o.-.1.&X4X4X6X,Xb 7 U V.U.R.R.4.4._.'.K.x.l. .9 2 5 ` G.D.( 1 s l ",
"s h u f O.-.f G Z.dXlXcXi.{ 2 : a c f.x.,.4X4X>Xm e.B.4.Y 5.R.R.Y.H.A.'.zXoXXXz.&.%.=.H.E.R.6.I ) s ",
"| / > a z o.z E F.K.pXlXi. .3 > > y { <.2.*X4X>XM r.L.4.5.R.I.R d l | J.zXvXkX{.Q.Q.E.B.~ Q B.T.V.Q ",
"r.T 6.H.P y O.o.z %.J.sXy.{ d q q f ' >.%X*X*X,X| K._.R.T.R d & y s  .x.oXbXvXhXdXA.} j j ) ( D.R.R.",
"y y a D V.T h s h d L _.E l y z @.;.3.>.8.#X$.g  .).aXY.} k y : : < c j. XjXzXgXz.[ k k h h l B.R > ",
"k h h h I.9 y t > f G _.=._ / @.@X>.) @.>.@XX.]  XsX}.l. .d > - + : d G j.|.{.aX&.] k l 3 a 9 m.a s ",
"[ / j ( B.1 > t : a G R.|.=.&.2.1.@.0 z :.+.) i.sXlX}.z. .9 > : - : > k { k.{.'.&.] k h a : K J / ( ",
"/ j _ 6.M.d 2 a 2 h G R.I.9 a ,.;.b . q o.+.[ c.jXvXjXv.f.] d > y > - : d =._._.*.] a O   : W E ( _ ",
"( 3.H.T.~ j k k 9 l P Y.6 0 y 2.3.z X   k @.+. .a.fXpX Xf.[ k d 2 , + > G J.aX[.K.( a # < } F.t.j j ",
"F.E.T.T.~ } [ [ ( 1 B.4 O O q :.@.h X . s -.@.z - a.}.z.k.{ ] l k 2 r.)._.].].Z.P.y.| ..&.F.U.P.=.=.",
"Q.P 5 ~ I.( / ] l W m.+ + + q a e w O - s s a w - 3 9.*.*.| { ( d L _.'.r.9.q.e.q.I.U.I.S.E | L.T.E.",
"f > y < P.U.F.|..X'.4 : : > y q + # + y s w q @ : + 4 C.z.k.&.{  .Z.!.6 y a 3 k k Z.D.( ) / l I T.~ ",
"y - : t 3 N.'.hXzX).2 > 2 2 d d d d h h k d < j r...c.dXjX~.v.c.^.dX9.a d d h h K S._ ( j k h / S.h ",
"t - - : a { J.xXvXu.k a d k k k l k l k k s e D G H g.iXvXcXxXzXxXs.] ] k j / j W ..} [ / / h P _ d ",
"y : y < l  .z.}.gXG c k k l c l / / / l l s s / s d 9.s.fX`.pXdXzXu...| } | } ( ! } _ [ ( ] h r.) h ",
"a a s d c } =.F.`.6 l l l / / [ ] [ [ [ / a h _ k d k q.N ]  ...C.r.X.*.&.( _ 6.I.l } } [ / 2 D.( h ",
"v k d d e ) ` ! M.d / / [ [ [ [ [ } } / h s ( =._ / K < d l } | l F.| | %.6.H.T.).> 5 K G h J S._ ( ",
"l 5 h j _ *.=.7.M.d / [ [ | } | | } l h l F =.7.B.S.F : d ( } / / A.).I.V.T 6 G _.6 + # > U t.S.%._ ",
"6.! ! ! 6.H.W.Q.M.d [ } } | | | j s d ] | x.|.W._.m.- , d } / k L ).'.R d s d 5 '.C., . 7 E ] } I.6.",
"e.J J J T W V.'.dXk  .| | | / a a s l &. X{.`._.E.R # a d ( d E 4.V.r.s d k j D aXgX).M.T.s / L P.N.",
"O + + + q $ a y.gXu.} | l d a s e j %.|.jXcXjXk.e.r.a s s h E L.A S r.h j / / ( A.N./ / t.t.K U O O ",
"0 O + q # y < 9 dX`.{ D l l 7 / _ %.F._.lXcX~.j.L S.s j } y.B.B.5.V.V.j / _ ( j B.( k k T R.P       "
};
