/* XPM */
static char *_09eece0303d4c18c22b9f4424e46ebeKGmm1qzmwegkKiTP[] = {
/* columns rows colors chars-per-pixel */
"50 50 161 2 ",
"   c #232735",
".  c #262A34",
"X  c #282C36",
"o  c #232738",
"O  c #262B3B",
"+  c #292E3A",
"@  c #2C313D",
"#  c #31303F",
"$  c #272C40",
"%  c #292E42",
"&  c #2B2F48",
"*  c #2D3243",
"=  c #2E334A",
"-  c #313644",
";  c #393647",
":  c #333946",
">  c #31364A",
",  c #353B4C",
"<  c #3A3C4D",
"1  c #323750",
"2  c #353B52",
"3  c #393E53",
"4  c #393F5A",
"5  c #403D4F",
"6  c #413D50",
"7  c #3A414F",
"8  c #3C4254",
"9  c #3D445A",
"0  c #3F485A",
"q  c #3E4461",
"w  c #424356",
"e  c #414857",
"r  c #41465A",
"t  c #494659",
"y  c #434A5D",
"u  c #4A4A5D",
"i  c #404762",
"p  c #454D62",
"a  c #4B4E61",
"s  c #464D6A",
"d  c #484F6B",
"f  c #504D62",
"g  c #475062",
"h  c #4A5265",
"j  c #4C556A",
"k  c #4F596D",
"l  c #525366",
"z  c #535669",
"x  c #5A576D",
"c  c #525A6E",
"v  c #595C6E",
"b  c #4D5572",
"n  c #4F5876",
"m  c #545D72",
"M  c #5A5E72",
"N  c #535C7C",
"B  c #615E75",
"V  c #576176",
"C  c #5A6276",
"Z  c #57617B",
"A  c #5B657B",
"S  c #5F697F",
"D  c #5E687F",
"F  c #5E687E",
"G  c #606779",
"H  c #60677A",
"J  c #64647B",
"K  c #69667C",
"L  c #61687A",
"P  c #61687B",
"I  c #62697C",
"U  c #636A7D",
"Y  c #636B7E",
"T  c #646B7E",
"R  c #646C7E",
"E  c #61697F",
"W  c #565F80",
"Q  c #576081",
"!  c #5A6382",
"~  c #5E6980",
"^  c #5E6981",
"/  c #5F6A80",
"(  c #5F6982",
")  c #5D678A",
"_  c #5E688B",
"`  c #606A80",
"'  c #606A81",
"]  c #616A81",
"[  c #616B82",
"{  c #616C83",
"}  c #626C83",
"|  c #656D80",
" . c #636D84",
".. c #636E85",
"X. c #646E85",
"o. c #656E85",
"O. c #656F87",
"+. c #636C83",
"@. c #6C6C84",
"#. c #626D8D",
"$. c #716F86",
"%. c #657087",
"&. c #667087",
"*. c #667087",
"=. c #687083",
"-. c #6B7386",
";. c #6C7387",
":. c #697187",
">. c #657189",
",. c #677189",
"<. c #677289",
"1. c #66718A",
"2. c #697289",
"3. c #69738A",
"4. c #6D7588",
"5. c #69738C",
"6. c #6A758D",
"7. c #6B778F",
"8. c #6B768E",
"9. c #6D768D",
"0. c #6C778F",
"q. c #6B748C",
"w. c #6F788F",
"e. c #73748C",
"r. c #667290",
"t. c #6B7692",
"y. c #6D7890",
"u. c #6F7991",
"i. c #6E7A91",
"p. c #6F7B93",
"a. c #6E7A92",
"s. c #6F7C98",
"d. c #707991",
"f. c #717B93",
"g. c #727B93",
"h. c #717B94",
"j. c #737D95",
"k. c #737F97",
"l. c #747E96",
"z. c #737D94",
"x. c #727F9B",
"c. c #768098",
"v. c #77829A",
"b. c #76829A",
"n. c #78839B",
"m. c #78839C",
"M. c #7A849D",
"N. c #7B869E",
"B. c #7C879F",
"V. c #7A849C",
"C. c #7B889F",
"Z. c #7E87A0",
"A. c #7D88A0",
"S. c #7F89A2",
"D. c #828CA5",
"F. c #868FA8",
"G. c #8691AA",
"H. c #8A94AD",
"J. c #8D97B0",
"K. c #8E98B1",
"L. c #929CB5",
/* pixels */
"n.n.l.l.h.f.0.3.O.] A Z V m k e c L v R 4.4.4.4.R R R L L C C C v : @ 8 e y 0 0 0 2 @ k N.j.A.S.N.N.",
"f.h.u.0.3.:.+.E A A m V m c j 8 C A C I R R R R R R L G G C M v c 7   O * : = % % O . Z c.b.b.b.b.f.",
"6.3.3.O. . .] D A c j m m c a < M G G G G G L L L G G C C M v z a # . . o o O . . . . k 7.i.s.i.u.w.",
"3.<.O.O. .] D A A m c m c j 8 8 c M C C G A C C C C M v v v z l y . . . . X X @ @ @ + : *.7.7.t.7.3.",
"O.O. .] / / A A A m m m k a + e z v v M M M M M M v M v v l l a 7 . @ * > , , 7 7 8 7 + m %.6.6.6.<.",
" . .] / D A A A m m m k j 3 X 8 h l c M v v v v v v v z l a l e @ * > , 7 8 8 0 8 y y : 7 S  .<.<.*.",
"{ ] / ~ A A A m m m k j 8 $ . - e a a v M v v v v l l a a u e < + : 2 7 8 0 y u y g g g * k D (  . .",
"/ / A A A A m m m z i 1 % X X X ; w u a l v h a a a u u e w ; # * 2 7 0 0 y g g j k k h 0 7 m ~ / / ",
"A A Z Z Z m m k p 2 = & X @ 7 , + : 3 w u u u u e e 3 < < ; * . : 8 0 y g j j k k m m m k 7 q Z D D ",
"A Z C C m m j 3 = = & O : 8 0 y u - * < < 3 3 < 7 ; : * + X . O 8 0 y g j k m V A A A A V j 7 d Z A ",
"D D A V p 4 1 > = % + < 0 g j c M m e @ # - @ + + + @ - : , + # 0 y g k k V I R S =.=...{ A 7 9 p m ",
"m D g 2 1 1 = = % @ , 0 g z c F ] ] H c - . . * : , 7 8 8 8 # : u j c M C D +.:.<.8.7.7.<.=.k : 9 j ",
"k k 1 % = = = % + , 8 g k V Z +.0.e.9.:.h * X : 3 8 0 e 8 y * < g c V F  .=.4.w.c.c.c.7.c.7.{ 7 1 8 ",
"0 g 1 & = = O X = 8 y j m A  .3.l.V.n.f.k , @ 2 8 r p p a g * 8 k V C  .%.4.c.c.b.b.C.m.b.b.<.F * 2 ",
"1 1 = = % X . O 0 y p c A =.3.i.l.C.D.c.b 3 * 8 e a h z k j @ 8 g V R %.9.c.b.C.S.S.S.S.C.C.c.{ 2 * ",
"= = & + > g 7 X 8 8 g k Z -.i.b.C.C.c.3.m 3 , 0 p j c m c g O , 0 j m =.w.b.b.S.G.G.H.H.C.b.) n d O ",
"O + < G c.c. .# = 0 h n A  .6.s.b.b.s.7.n 2 8 y p k m k h 3 X % 2 q k Z %.f.b.G.H.J.G.S.b.! N n j * ",
"7 R D.F.D.N.z.e @ > 8 g n A >.s.x.t.1.Z j - , 0 r y u i 8 + X O @ 4 q k F %.s.A.S.A.b.r.! Q N n q . ",
"H.K.F.D.D.l.g.A @ % > 8 p b N Q _ _ Q b r + * = 1 3 8 3 O O * - : + , p j Z ( p.A.r.) _ Q N Q 0 @ j ",
"K.H.D.D.D.z.0. .7 . . X O @ : 8 0 , * O . . O * * * + o X * , 8 0 2 @ @ i b n ! r.r._ _ _ ! 0 7 t.H.",
"C.D.D.c.j.w.:.D g X . . + + + + + @ + + + + o . . .   . @ , 0 0 8 , * . X , j N W ) ) ) N , m S.J.G.",
"C.C.n.z.7.%. .V h + @ : : , , , , , , > : = * * .     O = 7 8 2 2 @ @ k V @ O , b W b 8 X k C.S.G.G.",
"V.b.g.:.%.F A V h + > 7 3 3 8 8 8 8 8 3 2 , : * @ O   . * : , = @ g 8.b.b.=.: .   * : 7 @ F m.b.b.N.",
"u.w.-.+.^ F V V 0 % 7 7 8 0 r 0 y e r 0 8 8 2 : - % O . O @ @ , A s.b.j.G.b.D . @ 0 k F j A c.c.c.i.",
"6.<.O.] ~ A m m 0 * 9 0 p p u r j l j h a u e 3 7 - @   . . 0 <.l.B.B.V.F.F.j.: 7 g A 7.Z V u.<.<.7.",
"*. .] A M N c j 7 : e h j c z j m m c z j h i r 8 , O   @ m <.c.l.N.D.D.G.H.D.c : j =.b.=.k 6.D ] <.",
"] ] A A m m z p * 7 y j c M A C C C C A m c j a 0 = o @ V <.7.c.n.B.D.D.G.H.J.0.: k <.m.{ j  .=.*.O.",
"A A C A m h p 9 @ 8 u g c C E E +.@.K H H V c a 7 O . h %.<.7.c.c.N.D.F.G.H.J.D.0 g S <.j y F  .] D ",
"A V m c h 0 8 , + 9 a h j m A O.+.2.:.@.+.G h 3 * o 7 D %.<.i.c.V.B.D.D.G.H.J.H.F 7 d b 8 8 c V A A ",
"c c j y 0 8 , % X 8 p j j z m M K q.e.q.+.k r > % @ m  .%.q.w.c.c.D.D.D.G.G.J.K.c., 7 9 * , j j c m ",
"h y 0 8 8 * O o . , i j z m m m A M A A j y > * + g D  .*.3.i.c.V.N.D.D.F.H.H.J.A.0 O : y 8 8 p g j ",
"0 0 8 = % o + : - X 2 p d b M N m m ~ M p 2 = * , V A  .*.3.w.c.n.N.B.D.D.F.H.J.S.~ - g A  .3 8 y e ",
", = * O X @ 8 e y y : 7 g d d b m M m d > 2 > @ k V A  .A O.0.f.l.V.D.D.D.D.D.F.F.@.8 u Z %.C : , 8 ",
"% O O X X 0 0 8 j j j e , d j d d b m i 4 2 O g m V V D E +.:.f.g.l.l.l.D.D.D.D.F.K h 8 V S <.8 % * ",
"X : y y @ 0 g j k m V m j 8 0 d d i d q 4 + < j c m V A E ] +.3.e.l.l.V.V.D.B.D.B.A A , g V Z k @ O ",
"k *.V.w.k : g m C S S S F V y 2 i s q 0 * @ h j z c V A A E  .O.3.e.e.g.l.n.V.M.0.] A 3 8 g h q : @ ",
"f.V.N.z.z.v < m  .9.w.w.q.=.F j : , 8 * @ 7 g j j g m m A Z E E O.3.9.w.f.z.w./ 3.! A 8 % , 2 > w m ",
"f.l.z.:.D.l.h r C w.V.V.c.c.7.=.m - m t.A , p g j g k m V V Z A E +.*.3. .A D <.u.A Z q O + , h A 9.",
"9.f.g.z.V.B.0.8 p ( c.f.w.s.=.b 0 , V =.%.8 g p p j k b v m V V A A Z V Z A A V V A j 9 . 7 j V ] o.",
":.9.e.z.z.c.l.A 2 d ! <.b s q 8 1 * g c V 0 y p p g a j k c c m c c k c c j j p i j 0 : @ y c V Z / ",
"] :.3.0.u.8.t.<.0 9 d N s i 9 1 : 8 7 0 y 7 0 p p p a j j j j j j d y i i q q q 0 q 9 @ : y h c V A ",
"V E +.*.%.=.<.<.k + 2 q 4 2 0 m q.m.c.m 7 7 7 0 e 8 i p i y y r 9 q 0 9 0 0 0 9 9 2 @ . , 8 0 j c m ",
"m M Z A F / %...n X X : y c Z *.c.b.D.H.b.7 X 7 , 2 1 3 3 3 4 4 8 4 8 9 8 2 , * * @ @ . : , y p j k ",
"m m V Z A ~ / ^ k + , 0 g k V E %.c.C.S.G.b.0 X * > > 1 , , - - - * * + + * : 8 p j g @ O 2 y p j j ",
"j c m V Z Z V Z q @ , > e j c V F <.b.m.S.D.b.a + X X + # ; ; 5 < < ; ; @ , 7 0 k V F j O O 8 8 p g ",
"i g j j j k j g 8 @ , , 0 p k m A { 7.c.b.b.b.q.g X + ; 5 6 t t u t 6 5 * 7 9 j F =.%.<.8 O O = , 0 ",
"> 2 2 8 2 2 2 2 > O * , 8 y g k V V S %.q.w.w.w. .; ; 5 t f z x x x z t @ 8 g V / 7.s.c. .+ o O O % ",
"O O $ * * = * % . O O $ = 8 y h k m V A F =. . .Z < 5 t l B J K K B B f @ > 8 d V / 1.8.! , . + X O ",
"A V k g e 7 ; : @ X . . @ * > 8 0 g g m V Z V n b > 8 f x K $.$.e.$.B 6 O * 1 9 p b b b d - g 8.<.%.",
"K.H.G.F.C.N.c.w.<.R V j 8 O * = 1 2 4 9 0 9 8 , = O < t f z B $.$.K 6 ; ; m O.] < X 8 h @ >.G.L.L.K."
};
